Coordinates
version=1
nRows=4
nColumns=63
inDegrees=yes

Units are S.I. units (second, meters, Newtons, ...)
If the header above contains a line with 'inDegrees', this indicates whether rotational values are in degrees (yes) or radians (no).

endheader
time	pelvis_tilt	pelvis_list	pelvis_rotation	pelvis_tx	pelvis_ty	pelvis_tz	hip_flexion_r	hip_adduction_r	hip_rotation_r	knee_angle_r	knee_angle_r_beta	ankle_angle_r	subtalar_angle_r	mtp_angle_r	hip_flexion_l	hip_adduction_l	hip_rotation_l	knee_angle_l	knee_angle_l_beta	ankle_angle_l	subtalar_angle_l	mtp_angle_l	L5_S1_Flex_Ext	L5_S1_Lat_Bending	L5_S1_axial_rotation	L4_L5_Flex_Ext	L4_L5_Lat_Bending	L4_L5_axial_rotation	L3_L4_Flex_Ext	L3_L4_Lat_Bending	L3_L4_axial_rotation	L2_L3_Flex_Ext	L2_L3_Lat_Bending	L2_L3_axial_rotation	L1_L2_Flex_Ext	L1_L2_Lat_Bending	L1_L2_axial_rotation	L1_T12_Flex_Ext	L1_T12_Lat_Bending	L1_T12_axial_rotation	Abs_r3	Abs_r2	Abs_r1	Abs_t1	Abs_t2	neck_flexion	neck_bending	neck_rotation	arm_flex_r	arm_add_r	arm_rot_r	elbow_flex_r	pro_sup_r	wrist_flex_r	wrist_dev_r	arm_flex_l	arm_add_l	arm_rot_l	elbow_flex_l	pro_sup_l	wrist_flex_l	wrist_dev_l
      0.00800000	    -50.22498493	     -2.16725953	     -4.12449827	     -0.35993591	      0.98576938	      0.03631353	    127.81865860	     -9.07193044	     -1.39992562	    118.35266011	      2.06564360	      9.89035121	     -3.26289317	      0.00000000	     97.15695328	    -10.11730986	      1.74071894	     51.84106171	      0.90479721	     -5.58600082	      3.95645625	      0.00000000	     -0.08736385	      0.30745332	      0.80858425	     -0.16224341	      0.40891292	      0.85912076	     -0.14353007	      0.74754201	      0.85912076	     -0.09984815	      0.74754201	      0.70751122	     -0.08112607	      0.62695881	      0.65697470	     -0.04991971	      0.47624520	      0.60643819	     -0.62403127	      3.47797347	      4.49710301	      0.00000000	      0.00000000	     -0.00000000	      0.00000000	      0.00000000	     68.84938642	     -9.03173015	     12.14861998	     34.71237364	     20.67459663	      0.00000000	      5.43727179	     68.07376578	     -6.32402506	      5.53378553	     33.29570063	     27.70367922	      0.00000000	      5.43727179
      0.01700000	    -49.97842710	     -2.39329939	     -4.31978084	     -0.35849204	      0.98568002	      0.03661182	    130.27945690	     -9.77163904	     -2.09015488	    118.97893313	      2.07657412	      9.73870887	     -3.80528708	      0.00000000	     94.46382244	    -10.49233971	      1.47563596	     50.45275682	      0.88056672	     -5.39503317	      3.45742193	      0.00000000	     -0.08949394	      0.34982275	      0.75860212	     -0.16619920	      0.46526426	      0.80601475	     -0.14702960	      0.85055904	      0.80601475	     -0.10228263	      0.85055904	      0.66377686	     -0.08310407	      0.71335856	      0.61636422	     -0.05113684	      0.54187544	      0.56895159	     -0.63924628	      3.95726495	      4.21911741	      0.00000000	      0.00000000	     -0.00000000	      0.00000000	      0.00000000	     68.71123430	     -8.68403494	     12.04857073	     34.34485721	     20.71112798	      0.00000000	      5.42965322	     67.81566369	     -6.76126509	      5.38543383	     33.32785920	     27.70149653	      0.00000000	      5.42965322
      0.02500000	    -49.94978550	     -2.37611608	     -4.31259837	     -0.35830724	      0.98570607	      0.03646255	    130.93438672	     -9.91319161	     -2.20239020	    118.90650902	      2.07531008	      9.72139968	     -3.91669180	      0.00000000	     93.97468197	    -10.47447351	      1.47121917	     50.49851730	      0.88136539	     -5.40776348	      3.40185363	      0.00000000	     -0.08638871	      0.35601537	      0.75199896	     -0.16043247	      0.47350044	      0.79899889	     -0.14192800	      0.86561576	      0.79899889	     -0.09873365	      0.86561576	      0.65799909	     -0.08022055	      0.72598654	      0.61099915	     -0.04936251	      0.55146780	      0.56399922	     -0.61706589	      4.02731703	      4.18239261	      0.00000000	      0.00000000	     -0.00000000	      0.00000000	      0.00000000	     68.67428217	     -8.67698753	     12.02419747	     34.31793654	     20.69701689	      0.00000000	      5.42868588	     67.71190276	     -6.82048896	      5.35299706	     33.28239852	     27.68570115	      0.00000000	      5.42868588
      0.03300000	    -49.91905414	     -2.09988574	     -4.06412372	     -0.35825531	      0.98594509	      0.03621170	    131.87020284	    -10.05440594	     -2.18586442	    118.69755329	      2.07166312	      8.07821345	     -6.15670636	      0.00000000	     93.24407385	    -10.17375334	      1.14877732	     50.29142746	      0.87775099	     -5.33314960	      2.78306394	      0.00000000	     -0.08746514	      0.32755584	      0.70048425	     -0.16243151	      0.43564926	      0.74426451	     -0.14369648	      0.79641926	      0.74426451	     -0.09996391	      0.79641926	      0.61292372	     -0.08122013	      0.66795186	      0.56914345	     -0.04997758	      0.50738399	      0.52536318	     -0.62475475	      3.70537712	      3.89588323	      0.00000000	      0.00000000	     -0.00000000	      0.00000000	      0.00000000	     68.56021637	     -8.47558129	     11.40049853	     34.31696731	     20.57538666	      0.00000000	      5.37912430	     67.68691911	     -6.83635025	      4.90826718	     33.21711439	     27.43461417	      0.00000000	      5.37912430
